<svg width="23" height="23" viewBox="0 0 23 23" fill="none" xmlns="http://www.w3.org/2000/svg">
<path d="M1.43747 20.8438C1.33604 20.8444 1.23564 20.8235 1.14285 20.7826C1.05006 20.7416 0.966991 20.6815 0.899102 20.6061C0.831214 20.5308 0.780043 20.4419 0.748953 20.3453C0.717864 20.2488 0.70756 20.1468 0.718719 20.046L1.27216 15.0147C1.29186 14.8539 1.36531 14.7045 1.48059 14.5906L13.2393 2.8319C13.453 2.61783 13.7067 2.44801 13.9861 2.33213C14.2654 2.21626 14.5649 2.15662 14.8673 2.15662C15.1697 2.15662 15.4692 2.21626 15.7485 2.33213C16.0279 2.44801 16.2816 2.61783 16.4953 2.8319L18.7306 5.06721C18.9447 5.28084 19.1145 5.5346 19.2304 5.81394C19.3462 6.09329 19.4059 6.39275 19.4059 6.69518C19.4059 6.9976 19.3462 7.29706 19.2304 7.57641C19.1145 7.85576 18.9447 8.10951 18.7306 8.32315L6.97903 20.0747C6.86521 20.19 6.71577 20.2634 6.55497 20.2831L1.52372 20.8366L1.43747 20.8438ZM2.68091 15.4172L2.24966 19.3128L6.14528 18.8816L17.7172 7.30971C17.7976 7.22958 17.8614 7.13436 17.9049 7.02953C17.9484 6.92469 17.9708 6.81229 17.9708 6.69877C17.9708 6.58525 17.9484 6.47285 17.9049 6.36801C17.8614 6.26318 17.7976 6.16796 17.7172 6.08783L15.4747 3.84533C15.3945 3.76492 15.2993 3.70113 15.1945 3.65759C15.0896 3.61406 14.9772 3.59165 14.8637 3.59165C14.7502 3.59165 14.6378 3.61406 14.533 3.65759C14.4281 3.70113 14.3329 3.76492 14.2528 3.84533L2.68091 15.4172Z" fill="black"/>
<path d="M16.5313 10.2134C16.4367 10.214 16.343 10.1958 16.2554 10.1601C16.1678 10.1243 16.0882 10.0716 16.021 10.005L11.5576 5.52717C11.4906 5.46015 11.4374 5.3806 11.4011 5.29304C11.3649 5.20548 11.3462 5.11163 11.3462 5.01686C11.3462 4.92208 11.3649 4.82824 11.4011 4.74068C11.4374 4.65312 11.4906 4.57356 11.5576 4.50654C11.6246 4.43953 11.7041 4.38637 11.7917 4.3501C11.8793 4.31383 11.9731 4.29517 12.0679 4.29517C12.1627 4.29517 12.2565 4.31383 12.3441 4.3501C12.4316 4.38637 12.5112 4.43953 12.5782 4.50654L17.056 8.98436C17.1234 9.05117 17.1768 9.13067 17.2133 9.21826C17.2498 9.30584 17.2686 9.39979 17.2686 9.49467C17.2686 9.58955 17.2498 9.6835 17.2133 9.77108C17.1768 9.85867 17.1234 9.93816 17.056 10.005C16.9871 10.0733 16.9052 10.1271 16.815 10.1629C16.7248 10.1987 16.6283 10.2159 16.5313 10.2134Z" fill="black"/>
<path d="M11.561 8.987L5.96533 14.5826L6.9818 15.5991L12.5774 10.0035L11.561 8.987Z" fill="black"/>
<path d="M21.5625 20.8438H10.0625C9.87188 20.8438 9.68906 20.768 9.55427 20.6332C9.41948 20.4984 9.34375 20.3156 9.34375 20.125C9.34375 19.9344 9.41948 19.7516 9.55427 19.6168C9.68906 19.482 9.87188 19.4062 10.0625 19.4062H21.5625C21.7531 19.4062 21.9359 19.482 22.0707 19.6168C22.2055 19.7516 22.2812 19.9344 22.2812 20.125C22.2812 20.3156 22.2055 20.4984 22.0707 20.6332C21.9359 20.768 21.7531 20.8438 21.5625 20.8438Z" fill="black"/>
</svg>
