<svg width="23" height="23" viewBox="0 0 23 23" fill="none" xmlns="http://www.w3.org/2000/svg">
<g clip-path="url(#clip0_6_209)">
<path d="M22.2745 8.30884L15.0428 7.69848L12.2297 1.01084C12.1103 0.718934 11.8184 0.519897 11.5 0.519897C11.1815 0.519897 10.8896 0.705681 10.7702 1.01084L7.95709 7.69848L0.725452 8.30884C0.406993 8.3354 0.128341 8.54769 0.0354732 8.85289C-0.057395 9.1581 0.0354732 9.48981 0.274317 9.7021L5.75448 14.4392L4.10908 21.4983C4.04272 21.8168 4.16214 22.1353 4.41428 22.321C4.67968 22.5068 5.02465 22.5201 5.29005 22.3608L11.5 18.6057L17.7099 22.3608C17.8426 22.4405 17.9753 22.4803 18.1213 22.4803C18.2805 22.4803 18.453 22.4272 18.5857 22.3343C18.8511 22.1485 18.9705 21.8168 18.8909 21.5116L17.2456 14.4524L22.7257 9.71535C22.9646 9.50306 23.0574 9.1713 22.9646 8.86615C22.8716 8.54769 22.593 8.3354 22.2745 8.30884ZM15.839 13.5634C15.6134 13.7625 15.5205 14.0544 15.5869 14.3463L16.9138 20.0388L11.9113 17.0134C11.7786 16.9338 11.6459 16.894 11.5 16.894C11.354 16.894 11.2081 16.9338 11.0887 17.0134L6.08619 20.0388L7.41309 14.3463C7.47945 14.0544 7.38654 13.7625 7.16099 13.5634L2.74237 9.74191L8.5675 9.25097C8.85941 9.22441 9.12481 9.03868 9.23098 8.77328L11.5 3.37273L13.769 8.75998C13.8884 9.03863 14.1405 9.22441 14.4325 9.23767L20.2576 9.72861L15.839 13.5634Z" fill="white"/>
</g>
<defs>
<clipPath id="clip0_6_209">
<rect width="23" height="23" fill="white"/>
</clipPath>
</defs>
</svg>
