<svg width="28" height="28" viewBox="0 0 28 28" fill="none" xmlns="http://www.w3.org/2000/svg">
<g clip-path="url(#clip0_1_18)">
<path d="M3.5 13.125H0.875C0.392 13.125 0 13.517 0 14C0 14.483 0.392 14.875 0.875 14.875H3.5C3.983 14.875 4.375 14.483 4.375 14C4.375 13.517 3.983 13.125 3.5 13.125ZM14 4.375C14.483 4.375 14.875 3.983 14.875 3.5V0.875C14.875 0.392 14.483 0 14 0C13.517 0 13.125 0.392 13.125 0.875V3.5C13.125 3.983 13.517 4.375 14 4.375ZM22.4184 6.80748L24.2568 4.96909C24.5954 4.63048 24.5954 4.08182 24.2568 3.74322C23.9182 3.40461 23.3695 3.40461 23.0309 3.74322L21.1925 5.58161C20.8539 5.92022 20.8539 6.46887 21.1925 6.80748C21.5311 7.14613 22.0798 7.14613 22.4184 6.80748ZM6.48374 20.2913L4.64535 22.1297C4.30674 22.4683 4.30674 23.0169 4.64535 23.3555C4.98395 23.6941 5.53261 23.6941 5.87122 23.3555L7.70961 21.5171C8.04822 21.1785 8.04822 20.6299 7.70961 20.2913C7.371 19.9527 6.82239 19.9526 6.48374 20.2913ZM5.957 7.19426C6.29913 7.53639 6.853 7.53639 7.19422 7.19426C7.53548 6.85213 7.53548 6.29826 7.19422 5.95705L5.33839 4.10026C4.99626 3.75813 4.44239 3.75813 4.10113 4.10026C3.759 4.44239 3.759 4.99626 4.10113 5.33752L5.957 7.19426ZM14 23.625C13.517 23.625 13.125 24.017 13.125 24.5V27.125C13.125 27.608 13.517 28 14 28C14.483 28 14.875 27.608 14.875 27.125V24.5C14.875 24.017 14.483 23.625 14 23.625ZM22.043 20.8057C21.7009 20.4636 21.147 20.4636 20.8057 20.8057C20.4636 21.1479 20.4636 21.7017 20.8057 22.043L22.6616 23.8989C23.0037 24.241 23.5576 24.241 23.8989 23.8989C24.2401 23.5567 24.241 23.0029 23.8989 22.6616L22.043 20.8057ZM27.125 13.125H24.5C24.017 13.125 23.625 13.517 23.625 14C23.625 14.483 24.017 14.875 24.5 14.875H27.125C27.608 14.875 28 14.483 28 14C28 13.517 27.608 13.125 27.125 13.125ZM14 6.11974C9.64774 6.11974 6.11974 9.64774 6.11974 14C6.11974 18.3523 9.64774 21.8803 14 21.8803C18.3523 21.8803 21.8803 18.3523 21.8803 14C21.8803 9.64774 18.3523 6.11974 14 6.11974ZM14 20.1233C10.6181 20.1233 7.87674 17.3819 7.87674 14C7.87674 10.6181 10.6181 7.87674 14 7.87674C17.3819 7.87674 20.1233 10.6181 20.1233 14C20.1233 17.3819 17.3819 20.1233 14 20.1233Z" fill="white"/>
</g>
<defs>
<clipPath id="clip0_1_18">
<rect width="28" height="28" fill="white"/>
</clipPath>
</defs>
</svg>
