<svg width="39" height="39" viewBox="0 0 39 39" fill="none" xmlns="http://www.w3.org/2000/svg">
<g clip-path="url(#clip0_1_52)">
<path d="M19.5 0C15.6433 0 11.8731 1.14366 8.66639 3.28634C5.45963 5.42903 2.96027 8.47451 1.48436 12.0377C0.00844898 15.6008 -0.377716 19.5216 0.374696 23.3043C1.12711 27.0869 2.9843 30.5615 5.71143 33.2886C8.43855 36.0157 11.9131 37.8729 15.6957 38.6253C19.4784 39.3777 23.3992 38.9916 26.9623 37.5157C30.5255 36.0397 33.571 33.5404 35.7137 30.3336C37.8564 27.1269 39 23.3567 39 19.5C38.9944 14.33 36.9381 9.37339 33.2824 5.71765C29.6266 2.06192 24.67 0.00564542 19.5 0ZM19.5 37.1719C16.0048 37.1719 12.5882 36.1354 9.68204 34.1936C6.77592 32.2518 4.51087 29.4918 3.17333 26.2627C1.83578 23.0336 1.48582 19.4804 2.16769 16.0524C2.84957 12.6244 4.53265 9.47555 7.00411 7.0041C9.47556 4.53264 12.6244 2.84956 16.0524 2.16769C19.4804 1.48581 23.0336 1.83577 26.2627 3.17332C29.4919 4.51086 32.2518 6.77591 34.1936 9.68203C36.1354 12.5882 37.1719 16.0048 37.1719 19.5C37.1662 24.1851 35.3026 28.6768 31.9897 31.9897C28.6768 35.3026 24.1852 37.1662 19.5 37.1719Z" fill="#fff"/>
<path d="M27.4219 18.5859H20.4141V11.5781C20.4141 11.3357 20.3178 11.1032 20.1463 10.9318C19.9749 10.7604 19.7424 10.6641 19.5 10.6641C19.2576 10.6641 19.0251 10.7604 18.8537 10.9318C18.6822 11.1032 18.5859 11.3357 18.5859 11.5781V18.5859H11.5781C11.3357 18.5859 11.1032 18.6822 10.9318 18.8537C10.7604 19.0251 10.6641 19.2576 10.6641 19.5C10.6641 19.7424 10.7604 19.9749 10.9318 20.1463C11.1032 20.3178 11.3357 20.4141 11.5781 20.4141H18.5859V27.4219C18.5859 27.6643 18.6822 27.8968 18.8537 28.0682C19.0251 28.2396 19.2576 28.3359 19.5 28.3359C19.7424 28.3359 19.9749 28.2396 20.1463 28.0682C20.3178 27.8968 20.4141 27.6643 20.4141 27.4219V20.4141H27.4219C27.6643 20.4141 27.8968 20.3178 28.0682 20.1463C28.2396 19.9749 28.3359 19.7424 28.3359 19.5C28.3359 19.2576 28.2396 19.0251 28.0682 18.8537C27.8968 18.6822 27.6643 18.5859 27.4219 18.5859Z" fill="#fff"/>
</g>
<defs>
<clipPath id="clip0_1_52">
<rect width="39" height="39" fill="white"/>
</clipPath>
</defs>
</svg>
