<svg width="23" height="23" viewBox="0 0 23 23" fill="none" xmlns="http://www.w3.org/2000/svg">
<g clip-path="url(#clip0_6_213)">
<path d="M19.022 2.70823H15.9511V0.712666C15.9511 0.310987 15.6271 0 15.2254 0C15.1865 0 15.1605 0.013011 15.1478 0.0259924C15.1348 0.013011 15.1088 0 15.0958 0H7.87832H7.82664H7.77465C7.373 0 7.06202 0.310987 7.06202 0.712666V2.70826H3.9781C3.09683 2.70826 2.41016 3.39493 2.41016 4.2762V5.41651V6.84181H3.77076V21.4451C3.77076 22.3264 4.44445 23 5.32573 23H17.6744C18.5557 23 19.2423 22.3264 19.2423 21.4451V6.84181H20.59V5.41651V4.2762C20.59 3.39493 19.903 2.70823 19.022 2.70823ZM8.48732 1.4253H14.5128V2.70823H8.48732V1.4253ZM17.804 21.4451C17.804 21.536 17.7651 21.5747 17.6744 21.5747H5.32573C5.23506 21.5747 5.19609 21.536 5.19609 21.4451V6.84178H17.804V21.4451ZM19.1517 5.41648H3.84844V4.27617C3.84844 4.18548 3.88741 4.13353 3.97807 4.13353H19.022C19.1127 4.13353 19.1517 4.18548 19.1517 4.27617V5.41648Z" fill="white"/>
<path d="M15.5496 8.51343H14.1113V20.3048H15.5496V8.51343Z" fill="white"/>
<path d="M12.2322 8.51343H10.7939V20.3048H12.2322V8.51343Z" fill="white"/>
<path d="M8.91485 8.51343H7.47656V20.3048H8.91485V8.51343Z" fill="white"/>
</g>
<defs>
<clipPath id="clip0_6_213">
<rect width="23" height="23" fill="white"/>
</clipPath>
</defs>
</svg>
